<?xml version="1.0" encoding="UTF-8"?>
<!DOCTYPE svg PUBLIC "-//W3C//DTD SVG 1.1//EN" "http://www.w3.org/Graphics/SVG/1.1/DTD/svg11.dtd">
<!-- Creator: CorelDRAW X8 -->
<svg xmlns="http://www.w3.org/2000/svg" xml:space="preserve" width="8.5in" height="1.305in" version="1.1" shape-rendering="geometricPrecision" text-rendering="geometricPrecision" image-rendering="optimizeQuality" fill-rule="evenodd" clip-rule="evenodd"
viewBox="0 0 8500 1305"
 xmlns:xlink="http://www.w3.org/1999/xlink">
 <g id="Layer_x0020_1">
  <metadata id="CorelCorpID_0Corel-Layer"/>
  <g id="_2237591674960">
   <path fill="#3CA836" d="M4676 973c-113,41 -234,24 -325,-55 -57,-49 -98,-123 -106,-199 -6,-60 -9,-57 0,-121 9,-69 18,-103 62,-162 54,-73 127,-116 219,-120 72,-3 115,-3 183,29 79,37 145,131 164,216 13,56 10,116 4,172 -3,25 -32,96 -47,117 -41,57 -80,94 -145,120l-9 3zm574 -237c1,-74 8,-165 -12,-236 -25,-90 -52,-150 -108,-226 -33,-46 -89,-102 -134,-136 -57,-42 -131,-79 -199,-99 -32,-10 -38,-15 -74,-21 -108,-18 -226,-18 -333,2 -43,7 -153,49 -192,71 -120,69 -149,117 -227,225 -58,80 -64,85 -85,183 -11,53 -24,124 -21,177 2,31 11,70 15,105 13,108 64,198 133,280 15,18 19,26 37,41 10,9 18,22 34,34 79,66 186,117 284,146 71,20 184,24 259,18 137,-10 251,-53 365,-129 129,-86 245,-262 257,-419 0,-5 0,-10 1,-16z"/>
   <path fill="#3CA836" d="M8366 371c14,-13 5,-5 18,-13l42 -38c31,-29 64,-43 74,-87 -35,-35 -59,-63 -101,-93 -51,-38 -68,-54 -131,-78 -42,-16 -94,-35 -138,-43 -55,-9 -81,-18 -141,-19 -95,-1 -244,22 -330,65 -149,75 -253,159 -325,318 -31,71 -52,157 -54,235 -2,91 2,146 26,234 26,93 84,160 140,236 42,59 104,95 165,132 55,34 235,80 302,83 99,6 201,-5 295,-40 128,-46 97,-29 207,-109l8 -5c17,-14 72,-61 72,-78 0,-27 -7,-28 -25,-45 -26,-26 -43,-43 -71,-64 -18,-15 -104,-97 -114,-100 -23,-8 -59,33 -77,47 -37,30 -44,37 -90,56 -37,15 -33,24 -81,26 -117,5 -117,9 -226,-45 -59,-30 -111,-76 -130,-141 -8,-27 -15,-36 -21,-68 -18,-98 -12,-191 41,-278 51,-83 147,-141 244,-146 17,0 105,-4 116,4 12,9 43,15 61,23 28,12 32,18 61,38 17,12 34,24 51,36 13,14 26,30 45,35l87 -78z"/>
   <path fill="#E87A31" d="M970 146c-6,-4 -23,-15 -30,-20 -42,-30 -86,-47 -133,-68 -30,-14 -211,-32 -254,-34 -172,-9 -352,-2 -525,-1 -2,0 -4,0 -5,0 -16,0 -21,14 -21,30l0 246c0,21 23,15 45,15l422 0c60,0 118,9 178,16 7,0 12,7 24,11 29,11 63,47 73,76 11,29 11,18 14,58 12,144 -89,189 -215,191 -26,0 -53,-1 -79,-1 -152,0 -304,0 -457,0 -13,56 -5,493 -5,587 0,40 28,30 66,30l286 0c6,-23 15,-13 15,-30l0 -296c63,0 281,10 327,-9 17,-8 47,-6 73,-14 39,-12 81,-18 115,-40 122,-79 185,-119 227,-267 4,-12 7,-24 11,-35 6,-21 7,-149 3,-172 -1,-9 -39,-130 -43,-136 1,1 -42,-73 -75,-105 -12,-11 -24,-21 -37,-32z"/>
   <path fill="#3CA836" d="M5365 319c51,12 305,5 376,5l0 928c0,15 5,30 20,30l316 0c9,0 20,-10 24,-16 14,-20 6,-275 6,-305l0 -527c0,-129 -17,-111 65,-110 29,0 280,7 301,-6 10,-6 15,-13 15,-29l0 -226c0,-19 -13,-40 -30,-40l-1073 0c-33,0 -20,101 -20,135 0,54 0,107 0,161z"/>
   <path fill="#3CA836" d="M6669 1257c0,13 2,14 5,25l286 0c23,0 75,9 75,-15l0 -1229c0,-12 -3,-15 -15,-15l-331 0c-12,0 -20,8 -20,20l0 1214z"/>
   <g>
    <path fill="#E87A31" d="M1352 1247c0,18 8,24 15,35l978 0c14,-59 5,-211 5,-286 -11,-3 -11,-5 -25,-5l-943 0c-14,0 -14,2 -25,5 -11,48 -5,192 -5,251z"/>
    <path fill="#E87A31" d="M1352 58l0 236c0,11 8,20 20,20l963 0c12,0 15,-4 15,-15 0,-61 6,-223 -5,-271 -11,-3 -11,-5 -25,-5l-943 0c-16,0 -25,18 -25,35z"/>
    <path fill="#E87A31" d="M1357 509c-9,40 -9,231 0,271 23,1 20,5 45,5l918 0c42,0 30,-37 30,-120 0,-52 0,-104 0,-156 -11,-2 -11,-5 -25,-5l-933 0c-17,0 -20,4 -35,5z"/>
   </g>
   <path fill="#3CA836" d="M2877 1282c34,-7 52,-59 72,-85 47,-61 94,-130 139,-194 15,-21 14,-24 33,-46 19,-22 49,-69 67,-94 27,-38 54,-78 81,-115 11,-14 22,-27 34,-44 27,-38 51,-72 79,-109 35,-47 63,-94 96,-141 31,-43 64,-85 95,-129 32,-44 69,-102 104,-144 29,-36 45,-71 77,-107 14,-15 15,-27 16,-46 -71,-15 -250,-7 -330,-6 -9,1 -18,1 -26,1 -32,0 -46,25 -59,46l-13 22c-1,1 -2,3 -2,3 -1,1 -2,2 -2,3 -1,2 -4,5 -5,6 -93,124 -182,245 -274,371 -17,23 -31,46 -49,70 -56,76 -112,150 -167,226 -62,86 -123,170 -187,255 -15,20 -26,36 -38,59 -1,1 -16,16 -21,22 -20,27 -40,55 -60,82 -12,16 -79,94 -36,94l376 0z"/>
   <path fill="#E87A31" d="M3780 1282c11,0 15,-4 15,-15 0,-37 1,-10 -7,-23 -70,-96 -137,-194 -208,-289 -15,-21 -49,-81 -66,-90l-5 1c-19,0 -14,1 -24,11l-6 8c-4,5 -3,4 -7,9 -39,52 -80,109 -120,159 -24,29 -73,69 -43,109 15,20 14,17 25,36 14,27 48,81 80,84 29,2 84,0 116,0 83,0 166,0 250,0z"/>
   <path fill="#E87A31" d="M2734 371c10,17 28,34 32,53 42,0 31,-6 42,-19l132 -163c22,-27 11,-20 40,-51 23,-24 13,-38 -4,-62l-20 -25c0,-1 -1,-2 -2,-3 -10,-17 -1,-10 -23,-38 -12,-16 -23,-40 -54,-40 -66,0 -325,-7 -369,4 -9,2 4,35 10,43 14,18 20,20 33,41 11,19 31,44 45,65 14,20 112,164 122,172 6,4 12,17 16,23z"/>
  </g>
 </g>
</svg>
