<?xml version="1.0" encoding="UTF-8"?>
<!DOCTYPE svg PUBLIC "-//W3C//DTD SVG 1.1//EN" "http://www.w3.org/Graphics/SVG/1.1/DTD/svg11.dtd">
<!-- Creator: CorelDRAW X8 -->
<svg xmlns="http://www.w3.org/2000/svg" xml:space="preserve" width="1.143in" height="1in" version="1.1" shape-rendering="geometricPrecision" text-rendering="geometricPrecision" image-rendering="optimizeQuality" fill-rule="evenodd" clip-rule="evenodd"
viewBox="0 0 1143 1000"
 xmlns:xlink="http://www.w3.org/1999/xlink">
 <g id="Layer_x0020_1">
  <metadata id="CorelCorpID_0Corel-Layer"/>
  <g id="_2268598816672">
   <path fill="black" d="M710 433c0,-3 1,-4 4,-4l105 0 -9 73c-1,12 -2,25 -4,37 -1,7 -1,11 -2,18 -1,6 1,14 -5,14l-89 0 0 -138zm-164 138c0,-20 -17,-122 -17,-142l108 0 0 142 -91 0zm-87 -109l14 109 -93 0c-5,0 -6,-10 -7,-15l-18 -73c-2,-8 -3,-11 -5,-18 -2,-6 -3,-13 -4,-19 -2,-5 -4,-11 -4,-17l110 0c5,0 5,10 5,15 1,6 1,12 2,18zm417 109c0,-13 2,-26 4,-37l8 -73c2,-12 2,-32 8,-32l107 0c5,0 4,2 3,6l-30 121c-2,5 -2,15 -7,15l-93 0zm-166 -357l134 0 -12 111c-2,12 -2,32 -8,32l-114 0 0 -143zm-286 0c7,0 5,11 6,16l16 127 -123 0 -18 -71c-3,-11 -16,-65 -16,-72l135 0zm478 143c0,-11 5,-53 7,-68 1,-12 3,-22 4,-35 3,-48 6,-40 17,-40l130 0 -18 74c-1,7 -3,12 -4,18 -2,7 -3,13 -5,18 -3,12 -5,33 -11,33l-120 0zm-265 0l-118 0 -9 -74c-2,-12 -3,-25 -5,-36 -1,-7 -2,-12 -3,-19 -1,-6 -4,-14 2,-14l130 0c7,0 3,4 3,9l0 134zm-637 -324c0,45 40,40 70,40 36,0 72,0 107,0 2,3 2,7 3,11l76 301c4,21 13,50 18,72 3,17 7,32 12,48 5,21 11,51 18,72l17 72c13,47 24,97 37,144 2,8 4,13 10,19 5,4 13,9 22,9l586 0c15,0 33,-16 33,-31 0,-14 0,-23 -14,-33 -11,-8 -15,-7 -32,-7l-541 0 -28 -107c202,0 403,-1 605,0 34,0 37,-28 42,-52 2,-6 3,-8 4,-14l34 -137c1,-5 3,-10 4,-16 10,-40 20,-81 30,-121 5,-20 10,-40 15,-61 2,-5 2,-10 4,-15l7 -29c5,-18 10,-41 -18,-53 -12,-5 -39,-2 -55,-2 -265,0 -531,0 -796,0 -3,-7 -25,-106 -32,-122 -5,-12 -17,-21 -32,-21l-170 0c-19,0 -36,15 -36,33z"/>
   <path fill="black" d="M456 1000c22,0 39,-9 50,-21 60,-60 -15,-154 -86,-113 -32,18 -45,56 -30,91 10,25 36,43 66,43z"/>
   <path fill="black" d="M822 923c0,16 -1,22 7,38 26,52 102,52 128,0 14,-28 8,-63 -14,-84 -27,-27 -70,-28 -99,-2 -3,3 -5,6 -8,10 -3,3 -4,6 -7,10 -3,5 -7,20 -7,28z"/>
  </g>
 </g>
</svg>
