<?xml version="1.0" encoding="UTF-8"?>
<!DOCTYPE svg PUBLIC "-//W3C//DTD SVG 1.1//EN" "http://www.w3.org/Graphics/SVG/1.1/DTD/svg11.dtd">
<!-- Creator: CorelDRAW X8 -->
<svg xmlns="http://www.w3.org/2000/svg" xml:space="preserve" width="4.085in" height="4in" version="1.1" shape-rendering="geometricPrecision" text-rendering="geometricPrecision" image-rendering="optimizeQuality" fill-rule="evenodd" clip-rule="evenodd"
viewBox="0 0 4085 4000"
 xmlns:xlink="http://www.w3.org/1999/xlink">
 <g id="Layer_x0020_1">
  <metadata id="CorelCorpID_0Corel-Layer"/>
  <g id="_2339069596912">
   <path fill="#006633" d="M1990 4000c115,0 230,-10 340,-31 85,-16 168,-32 248,-59 129,-44 226,-82 348,-146 126,-65 239,-146 349,-235 74,-60 139,-130 204,-199 5,-6 9,-9 14,-15 298,-336 493,-815 493,-1267 0,-49 1,-95 -21,-139 -62,-121 -222,-147 -320,-53 -49,47 -62,96 -62,185 0,205 -45,383 -115,557 -11,28 -21,53 -34,78 -6,12 -10,24 -17,37l-40 73c-45,82 -100,163 -161,234 -69,79 -141,157 -224,222l-96 71c-56,39 -115,76 -177,107 -99,49 -204,94 -325,124 -438,109 -879,47 -1253,-189 -142,-90 -229,-169 -345,-290 -103,-107 -189,-255 -255,-384 -90,-180 -151,-419 -151,-633 0,-170 8,-279 47,-439 13,-49 27,-102 45,-148 53,-135 112,-267 200,-384 14,-20 26,-37 41,-56 168,-204 297,-313 530,-443 97,-55 245,-104 354,-132 181,-45 406,-57 597,-30 31,4 61,9 91,14 102,17 160,51 253,-19 104,-77 101,-234 4,-314 -45,-37 -106,-46 -164,-58 -372,-75 -774,-42 -1128,100 -115,46 -223,104 -329,168 -64,38 -125,82 -183,129 -190,154 -305,292 -442,494 -69,102 -123,217 -169,331l-49 140c-45,136 -68,274 -83,418 -1,14 -2,40 -5,57l10 353c3,36 9,72 15,108 23,135 61,265 109,392 13,32 26,60 38,89l107 205 182 257c5,7 8,9 13,16l137 146c12,12 20,17 32,29 122,123 372,286 525,350 124,51 240,97 374,127 137,29 283,52 448,52z"/>
   <path fill="#00E000" d="M2042 2153l-444 -437c-27,-27 -61,-66 -90,-88 -36,-28 -55,-59 -93,-84 -173,-115 -404,7 -404,222 0,131 118,218 204,304l637 637c47,47 112,81 195,81 72,0 150,-48 182,-89l346 -395c33,-35 61,-75 96,-110l298 -340c9,-10 9,-12 17,-21l63 -72c53,-67 143,-155 192,-219 18,-24 44,-47 63,-72 40,-51 110,-125 157,-179l63 -72c63,-67 129,-156 191,-219 45,-45 82,-99 126,-145l142 -161c55,-61 102,-119 102,-211 0,-107 -65,-196 -151,-236 -126,-59 -251,-5 -329,96l-403 466c-12,12 -16,20 -28,32l-53 63c-75,84 -143,167 -217,250l-376 436c-69,71 -208,250 -270,313l-216 250z"/>
  </g>
 </g>
</svg>
