<?xml version="1.0" encoding="UTF-8"?>
<!DOCTYPE svg PUBLIC "-//W3C//DTD SVG 1.1//EN" "http://www.w3.org/Graphics/SVG/1.1/DTD/svg11.dtd">
<!-- Creator: CorelDRAW X8 -->
<svg xmlns="http://www.w3.org/2000/svg" xml:space="preserve" width="4in" height="3.556in" version="1.1" shape-rendering="geometricPrecision" text-rendering="geometricPrecision" image-rendering="optimizeQuality" fill-rule="evenodd" clip-rule="evenodd"
viewBox="0 0 4000 3556"
 xmlns:xlink="http://www.w3.org/1999/xlink">
 <g id="Layer_x0020_1">
  <metadata id="CorelCorpID_0Corel-Layer"/>
  <g id="heart-empty.svg">
   <g>
    <g>
     <path fill="black" d="M1815 3479c50,49 116,77 187,77 69,0 137,-28 186,-77l1466 -1466c223,-223 345,-519 346,-833 0,-315 -122,-611 -345,-833 -223,-223 -518,-346 -833,-346 -309,0 -600,119 -821,334 -222,-216 -514,-335 -824,-335 -314,0 -609,122 -832,344 -223,223 -345,519 -345,834 0,314 123,610 346,832l1469 1469zm-1328 -2993c184,-184 430,-286 691,-286 261,0 507,102 692,287l61 60c18,19 44,30 71,30l0 0c26,0 52,-11 71,-30l58 -59c185,-185 431,-287 693,-287 261,0 506,102 691,287 185,185 286,430 286,691 0,261 -102,507 -287,692l-1467 1467c-23,23 -67,23 -91,0l-1468 -1469c-185,-185 -287,-430 -287,-691 0,-261 102,-507 286,-692z"/>
    </g>
   </g>
   <g>
   </g>
   <g>
   </g>
   <g>
   </g>
   <g>
   </g>
   <g>
   </g>
   <g>
   </g>
   <g>
   </g>
   <g>
   </g>
   <g>
   </g>
   <g>
   </g>
   <g>
   </g>
   <g>
   </g>
   <g>
   </g>
   <g>
   </g>
   <g>
   </g>
  </g>
  <path fill="red" stroke="black" stroke-width="6.94488" d="M487 1870l1468 1468c25,24 68,24 91,0l1467 -1467c185,-185 287,-430 287,-691 0,-261 -101,-507 -286,-692 -184,-184 -430,-286 -691,-286 -262,0 -507,102 -692,287l-59 59c-19,18 -45,29 -71,29 -27,0 -52,-11 -71,-29l-60 -61c-186,-185 -432,-287 -693,-287 -261,0 -507,102 -691,287 -184,185 -286,430 -286,691 0,261 102,507 287,692z"/>
 </g>
</svg>
