<?xml version="1.0" encoding="UTF-8"?>
<!DOCTYPE svg PUBLIC "-//W3C//DTD SVG 1.1//EN" "http://www.w3.org/Graphics/SVG/1.1/DTD/svg11.dtd">
<!-- Creator: CorelDRAW X8 -->
<svg xmlns="http://www.w3.org/2000/svg" xml:space="preserve" width="8.5in" height="8.5in" version="1.1" shape-rendering="geometricPrecision" text-rendering="geometricPrecision" image-rendering="optimizeQuality" fill-rule="evenodd" clip-rule="evenodd"
viewBox="0 0 8500 8500"
 xmlns:xlink="http://www.w3.org/1999/xlink">
 <g id="Layer_x0020_1">
  <metadata id="CorelCorpID_0Corel-Layer"/>
  <path fill="#E81919" d="M4250 0c-2343,0 -4250,1907 -4250,4250 0,2343 1907,4250 4250,4250 2343,0 4250,-1907 4250,-4250 0,-2343 -1907,-4250 -4250,-4250zm0 7985c-2059,0 -3735,-1676 -3735,-3735 0,-2059 1676,-3735 3735,-3735 2059,0 3735,1676 3735,3735 0,2059 -1675,3735 -3735,3735z"/>
  <path fill="#E81919" d="M4568 4250l1453 -2006c83,-115 57,-276 -58,-360 -115,-83 -276,-57 -359,58l-1354 1869 -1354 -1869c-83,-115 -244,-141 -359,-58 -116,84 -141,245 -58,360l1453 2006 -1453 2006c-83,115 -58,276 58,360 45,33 98,49 150,49 80,0 159,-37 209,-107l1354 -1869 1354 1869c50,70 129,107 208,107 53,0 106,-16 151,-49 116,-84 141,-245 58,-360l-1453 -2006z"/>
  <g id="_2339068535568">
  </g>
  <g id="_2339068536688">
  </g>
  <g id="_2339068535824">
  </g>
  <g id="_2339068535440">
  </g>
  <g id="_2339068533360">
  </g>
  <g id="_2339068534640">
  </g>
  <g id="_2339068534160">
  </g>
  <g id="_2339068534928">
  </g>
  <g id="_2339068534864">
  </g>
  <g id="_2339068533904">
  </g>
  <g id="_2339068533136">
  </g>
  <g id="_2339068532976">
  </g>
  <g id="_2339068532432">
  </g>
  <g id="_2339068532304">
  </g>
  <g id="_2339068532080">
  </g>
 </g>
</svg>
